<?xml version="1.0" encoding="UTF-8" standalone="no"?>
<svg
   xmlns:dc="http://purl.org/dc/elements/1.1/"
   xmlns:cc="http://creativecommons.org/ns#"
   xmlns:rdf="http://www.w3.org/1999/02/22-rdf-syntax-ns#"
   xmlns:svg="http://www.w3.org/2000/svg"
   xmlns="http://www.w3.org/2000/svg"
   xmlns:sodipodi="http://sodipodi.sourceforge.net/DTD/sodipodi-0.dtd"
   xmlns:inkscape="http://www.inkscape.org/namespaces/inkscape"
   width="754px"
   height="465px"
   version="1.1"
   id="svg3611"
   inkscape:version="0.91 r13725"
   sodipodi:docname="push-notifications.svg">
  <metadata
     id="metadata3667">
    <rdf:RDF>
      <cc:Work
         rdf:about="">
        <dc:format>image/svg+xml</dc:format>
        <dc:type
           rdf:resource="http://purl.org/dc/dcmitype/StillImage" />
      </cc:Work>
    </rdf:RDF>
  </metadata>
  <sodipodi:namedview
     pagecolor="#ffffff"
     bordercolor="#666666"
     borderopacity="1"
     objecttolerance="10"
     gridtolerance="10"
     guidetolerance="10"
     inkscape:pageopacity="0"
     inkscape:pageshadow="2"
     inkscape:window-width="1469"
     inkscape:window-height="1037"
     id="namedview3665"
     showgrid="false"
     inkscape:zoom="1.3138298"
     inkscape:cx="290.61134"
     inkscape:cy="232.5"
     inkscape:window-x="611"
     inkscape:window-y="136"
     inkscape:window-maximized="0"
     inkscape:current-layer="svg3611" />
  <defs
     id="defs3613" />
  <g
     inkscape:groupmode="layer"
     id="layer7"
     inkscape:label="layer1"
     style="display:inline"
     class="fragment">
    <rect
       style="fill:none;stroke:#cccccc;stroke-width:3"
       id="rect3617"
       pointer-events="none"
       ry="18"
       rx="18"
       height="120"
       width="150"
       y="3.5"
       x="2.5" />
    <path
       style="fill:#ff9933;stroke:none"
       inkscape:connector-curvature="0"
       id="path3619"
       pointer-events="none"
       d="m 35.33,72.84 -6.21,-4.3 c 0,0 25.76,-7.88 41.59,-7.88 10.86,0 20.23,-3.12 16.62,-9.61 -3.62,-6.49 -3.62,-24.55 10.84,-23.63 0,0 9.96,0 10.86,9.72 0,0 -0.79,3.59 12.32,6.38 0,0 2.25,1.39 -1.82,3.26 0,0 -19.9,-1.41 -18.08,3.69 0,0 -0.44,4.43 6.21,7.08 11.42,4.52 22.84,41.95 -24.75,38.36 0,0 -18.65,-0.81 -33.56,-9.62 0,0 -17.07,-7.98 -23.85,-9.85 l 9.83,-3.6 z" />
  </g>
  <g
     inkscape:groupmode="layer"
     id="layer8"
     inkscape:label="layer2"
     style="display:inline"
     class="fragment">
    <path
       style="fill:none;stroke:#ff9933;stroke-width:3;stroke-miterlimit:10"
       inkscape:connector-curvature="0"
       id="path3621"
       pointer-events="none"
       stroke-miterlimit="10"
       d="m 181.5,38.5 0,-4.5 q 0,-4.5 10,-4.5 l 60,0 q 10,0 10,-10 l 0,-5.5 q 0,-5.5 5.55,2.82 l 8.9,13.36 q 5.55,8.32 0,16.64 l -8.9,13.36 Q 261.5,68.5 261.5,58.5 l 0,-5.5 q 0,-5.5 -10,-5.5 l -60,0 q -10,0 -10,-4.5 z" />
    <rect
       style="fill:none;stroke:#cccccc;stroke-width:3"
       id="rect3623"
       pointer-events="none"
       ry="18"
       rx="18"
       height="120"
       width="160"
       y="2.5"
       x="301.5" />
    <path
       style="fill:#ff9933;stroke:none"
       inkscape:connector-curvature="0"
       id="path3625"
       pointer-events="none"
       d="m 349.16,89.59 c 27.91,11.66 49.11,18.47 78.98,27.82 0.6,0.09 1.17,-0.33 1.27,-0.96 0.09,-0.6 -0.33,-1.19 -0.94,-1.31 -47.04,-14.71 -83.97,-31 -92.4,-34.8 -0.87,-0.34 -1.88,0.05 -2.21,0.89 -0.36,0.87 0.02,1.8 0.87,2.13 2.1,0.94 4.16,1.85 6.17,2.71 l -6.64,5.03 c -0.75,1.09 -0.42,2.5 0.69,3.25 0.83,0.55 2,0.48 2.8,-0.02 l 11.41,-4.74 z M 426.21,60.14 404.5,40.34 c 0.15,0.01 0.3,0.02 0.46,0.02 4.4,0 7.96,-3.56 7.96,-7.93 0,-4.37 -3.56,-7.92 -7.96,-7.92 -4.42,0 -7.98,3.55 -7.98,7.92 0,1.68 0.52,3.22 1.41,4.49 l -14.72,-5.21 -7.96,-11.44 c -0.61,-0.84 -1.55,-1.4 -2.66,-1.54 -2.07,-0.23 -3.97,1.26 -4.21,3.35 -0.1,0.86 0.12,1.7 0.53,2.41 l 8.12,11.69 c 0.38,0.46 0.85,0.86 1.41,1.12 l 9.41,3.68 -15.46,7.85 c -2.16,1.22 -3.69,3.37 -4.12,5.87 l 0.07,14.05 -14.3,6.41 c -1.6,0.76 -2.75,2.36 -2.82,4.25 -0.12,2.71 2,4.98 4.73,5.1 0.84,0.05 1.67,-0.14 2.37,-0.49 l 17.5,-7.86 c 1.25,-0.66 2.18,-1.84 2.49,-3.3 l -0.02,-8.74 12.14,10.81 -2.23,18.4 c 0,0.12 -0.02,0.23 -0.02,0.35 -0.12,2.71 2,5 4.73,5.12 2.56,0.09 4.75,-1.76 5.1,-4.25 l 2.62,-21 c 0,-0.09 0.02,-0.19 0.02,-0.28 0.05,-1.47 -0.54,-2.81 -1.53,-3.74 l -11.23,-9.95 16.94,-8.28 15.73,14.38 c 0.7,0.68 1.66,1.1 2.7,1.1 2.11,-0.02 3.81,-1.73 3.78,-3.81 0,-1.12 -0.51,-2.13 -1.29,-2.83 z" />
  </g>
  <g
     inkscape:groupmode="layer"
     id="layer9"
     inkscape:label="layer3"
     style="display:inline"
     class="fragment">
    <path
       style="fill:none;stroke:#ff9933;stroke-width:3;stroke-miterlimit:10"
       inkscape:connector-curvature="0"
       id="path3627"
       pointer-events="none"
       stroke-miterlimit="10"
       d="m 491.5,39.5 0,-4.5 q 0,-4.5 10,-4.5 l 60,0 q 10,0 10,-10 l 0,-5.5 q 0,-5.5 5.55,2.82 l 8.9,13.36 q 5.55,8.32 0,16.64 l -8.9,13.36 Q 571.5,69.5 571.5,59.5 l 0,-5.5 q 0,-5.5 -10,-5.5 l -60,0 q -10,0 -10,-4.5 z" />
    <path
       style="fill:#ff9933;stroke:none"
       inkscape:connector-curvature="0"
       id="path3629"
       pointer-events="none"
       d="m 728.86,72.38 c -1.12,-3.32 -2.15,-5.1 -2.96,-7.9 -0.16,-0.55 -4.54,-12.9 -23.73,-24.23 -3.19,-1.89 -15.47,-5.47 -18.23,-6.52 -0.76,-0.39 -1.23,-0.92 -1.44,-1.09 -1.89,-1.6 -4.67,-5.81 -7.25,-7.33 -3.63,-2.12 -6.17,-2.35 -8.86,-2.54 -2.28,-0.16 -6.2,-0.27 -10.03,1.24 -3.83,1.49 -4.92,4.33 -5.02,5.27 l -0.23,1.62 c 0.63,0.57 1.04,1.57 1.04,2.49 0,0.88 -0.53,1.79 -0.53,3 0,1.53 0.59,4.13 3.19,6.34 2.98,2.51 6.89,3.87 10.28,5.68 0.05,0.03 0.12,0.06 0.19,0.12 3.51,3 1.05,6.66 1.05,6.66 L 646.8,46.72 c -6.34,-3.25 -11.34,-1.6 -14.59,3.3 -0.23,0.35 -0.3,0.46 -0.56,0.9 -0.15,0.26 -0.11,0.62 0.08,0.77 0.24,0.2 0.6,0.05 0.74,-0.12 2.37,-3.04 7.3,-3.45 9.97,-1.57 0.14,0.09 0.27,0.2 0.41,0.3 0.47,1.78 0.11,1.33 1.08,5.06 0.59,2.23 2.54,3.89 2.54,3.89 0,0 15.25,14.6 16.8,16.05 2.24,2.09 7.05,3.07 11.08,1.58 1.6,-0.59 5.17,-2.34 8.63,-3.54 0.92,-0.32 1.39,-0.12 1.98,0.51 0.87,0.97 1.5,1.61 3.43,3.6 0.44,0.47 0.55,1.17 0,1.77 l -9.52,10.98 -0.06,0.06 c -3.02,3.22 -2.84,6.4 -1.93,9.48 0.35,1.24 1.25,2.74 2.17,3.55 0.22,0.21 0.42,0.15 0.6,0.06 0.2,-0.16 0.16,-0.51 0.1,-0.69 -1.33,-4 -0.39,-7.25 2.97,-8.87 1.56,0.91 3.69,2.15 4.37,2.55 1.75,1.04 4.25,0.54 5.3,0.26 3.21,-0.86 17.44,-4.63 17.44,-4.63 10.98,-3.18 12.77,-9.96 15.6,-13.43 0.04,-0.05 0.07,-0.09 0.1,-0.14 1.52,0.3 2.3,0.37 3.25,-0.43 1.72,-1.44 0.7,-3.93 0.08,-5.59 z M 663.17,35.8 c 1.94,1.16 4.88,0.96 4.88,0.96 0,0 -0.72,2.12 -3.34,3.39 -1.35,0.65 -3.03,1.13 -5.67,1.06 -1.75,-0.05 -3.3,-0.99 -4.05,-2.15 -0.92,-1.41 -1.07,-3.09 -1.07,-3.09 0,0 0.87,-0.1 1.98,-0.63 1.12,-0.53 1.46,-2.69 1.41,-3.73 -0.97,-0.1 -2.33,-0.09 -3.74,0.13 0,0 0.15,-2.24 2.04,-2.74 1.64,-0.43 1.63,0.5 3.51,0.49 0.1,0 0.3,0 0.42,0 0.42,0 0.94,-0.14 1.24,-0.24 1.26,-0.42 1.85,-0.72 3.39,-0.66 1.89,0.08 4.08,0.43 4.86,3.16 -2.25,-0.34 -4.34,-0.49 -7.47,-0.2 -0.01,1.31 -0.32,3.1 1.61,4.25 z" />
    <path
       style="fill:#ff9933;stroke:none"
       inkscape:connector-curvature="0"
       id="path3631"
       pointer-events="none"
       d="m 656.93,35.98 c -0.25,0.1 -0.42,0.49 -0.4,0.76 0.1,1.14 0.44,2.26 1.69,2.38 1.41,0.14 1.96,-1.07 1.89,-2.39 -0.01,-0.07 -0.03,-0.37 -0.17,-0.47 -1.35,-1.06 -2.54,-0.46 -3.01,-0.28 z" />
  </g>
  <g
     inkscape:groupmode="layer"
     id="layer10"
     inkscape:label="layer4"
     style="display:inline"
     class="fragment">
    <path
       style="fill:none;stroke:#cccccc;stroke-width:3;stroke-miterlimit:10"
       inkscape:connector-curvature="0"
       id="path3633"
       pointer-events="none"
       stroke-miterlimit="10"
       d="m 591.5,100.5 0,4.5 q 0,4.5 -10,4.5 l -60,0 q -10,0 -10,10 l 0,5.5 q 0,5.5 -5.55,-2.82 l -8.9,-13.36 q -5.55,-8.32 0,-16.64 l 8.9,-13.36 q 5.55,-8.32 5.55,1.68 l 0,5.5 q 0,5.5 10,5.5 l 60,0 q 10,0 10,4.5 z" />
  </g>
  <g
     inkscape:groupmode="layer"
     id="layer11"
     inkscape:label="layer5"
     style="display:inline"
     class="fragment">
    <path
       style="fill:none;stroke:#cccccc;stroke-width:3;stroke-miterlimit:10"
       inkscape:connector-curvature="0"
       id="path3635"
       pointer-events="none"
       stroke-miterlimit="10"
       d="m 281.5,99.5 0,4.5 q 0,4.5 -10,4.5 l -60,0 q -10,0 -10,10 l 0,5.5 q 0,5.5 -5.55,-2.82 l -8.9,-13.36 q -5.55,-8.32 0,-16.64 l 8.9,-13.36 q 5.55,-8.32 5.55,1.68 l 0,5.5 q 0,5.5 10,5.5 l 60,0 q 10,0 10,4.5 z" />
  </g>
  <g
     inkscape:groupmode="layer"
     id="layer12"
     inkscape:label="layer6"
     style="display:inline"
     class="fragment">
    <path
       style="fill:none;stroke:#ff9933;stroke-width:3;stroke-miterlimit:10"
       inkscape:connector-curvature="0"
       id="path3641"
       pointer-events="none"
       stroke-miterlimit="10"
       d="m 72.983044,142.73283 1.53909,-4.22861 q 1.539091,-4.22862 10.936017,-0.80842 l 142.833279,51.98706 q 9.39693,3.4202 12.81713,-5.97672 l 1.88111,-5.16831 q 1.88111,-5.16831 7.63023,3.0113 l 18.64793,26.53843 q 5.74913,8.1796 -3.91271,10.75008 l -31.34372,8.34296 q -9.66183,2.57048 -6.24163,-6.82645 l 1.88111,-5.16831 q 1.88111,-5.16831 -7.51581,-8.58851 L 79.301789,154.61027 q -9.396926,-3.4202 -7.857836,-7.64882 z" />
    <rect
       style="fill:none;stroke:#cccccc;stroke-width:3"
       id="rect3637"
       pointer-events="none"
       ry="18"
       rx="18"
       height="120"
       width="160"
       y="162.5"
       x="301.5" />
    <path
       style="fill:#ff9933;stroke:none"
       inkscape:connector-curvature="0"
       id="path3639"
       pointer-events="none"
       d="m 349.16,250.59 c 27.91,11.66 49.11,18.47 78.98,27.82 0.6,0.09 1.17,-0.33 1.27,-0.96 0.09,-0.6 -0.33,-1.19 -0.94,-1.31 -47.04,-14.71 -83.97,-31 -92.4,-34.8 -0.87,-0.34 -1.88,0.05 -2.21,0.89 -0.36,0.87 0.02,1.8 0.87,2.13 2.1,0.94 4.16,1.85 6.17,2.71 l -6.64,5.03 c -0.75,1.09 -0.42,2.5 0.69,3.25 0.83,0.55 2,0.48 2.8,-0.02 l 11.41,-4.74 z m 77.05,-29.45 -21.71,-19.8 c 0.15,0.01 0.3,0.02 0.46,0.02 4.4,0 7.96,-3.56 7.96,-7.93 0,-4.37 -3.56,-7.92 -7.96,-7.92 -4.42,0 -7.98,3.55 -7.98,7.92 0,1.68 0.52,3.22 1.41,4.49 l -14.72,-5.21 -7.96,-11.44 c -0.61,-0.84 -1.55,-1.4 -2.66,-1.54 -2.07,-0.23 -3.97,1.26 -4.21,3.35 -0.1,0.86 0.12,1.7 0.53,2.41 l 8.12,11.69 c 0.38,0.46 0.85,0.86 1.41,1.12 l 9.41,3.68 -15.46,7.85 c -2.16,1.22 -3.69,3.37 -4.12,5.87 l 0.07,14.05 -14.3,6.41 c -1.6,0.76 -2.75,2.36 -2.82,4.25 -0.12,2.71 2,4.98 4.73,5.1 0.84,0.05 1.67,-0.14 2.37,-0.49 l 17.5,-7.86 c 1.25,-0.66 2.18,-1.84 2.49,-3.3 l -0.02,-8.74 12.14,10.81 -2.23,18.4 c 0,0.12 -0.02,0.23 -0.02,0.35 -0.12,2.71 2,5 4.73,5.12 2.56,0.09 4.75,-1.76 5.1,-4.25 l 2.62,-21 c 0,-0.09 0.02,-0.19 0.02,-0.28 0.05,-1.47 -0.54,-2.81 -1.53,-3.74 l -11.23,-9.95 16.94,-8.28 15.73,14.38 c 0.7,0.68 1.66,1.1 2.7,1.1 2.11,-0.02 3.81,-1.73 3.78,-3.81 0,-1.12 -0.51,-2.13 -1.29,-2.83 z" />
  </g>
  <g
     inkscape:groupmode="layer"
     id="layer13"
     inkscape:label="layer7"
     style="display:inline"
     class="fragment">
    <rect
       style="fill:none;stroke:#cccccc;stroke-width:3"
       id="rect3643"
       pointer-events="none"
       ry="18"
       rx="18"
       height="120"
       width="140"
       y="162.5"
       x="611.5" />
    <path
       style="fill:#ff9933;stroke:none"
       inkscape:connector-curvature="0"
       id="path3645"
       pointer-events="none"
       d="m 642.5,205.13 0,67.37 78,0 0,-67.37 -78,0 z m 68.51,57.45 -59.4,0 0,-48.42 59.41,0 0,48.42 z m -44.98,-5.77 -3.46,0 c -2.39,0 -4.71,-1.77 -4.71,-4.84 0,0 0,-21.9 0,-21.96 0,-2.74 2.26,-4.81 4.71,-4.81 l 3.46,0 0,31.61 z m 30.53,0 3.47,0 c 2.38,0 4.71,-1.77 4.71,-4.84 0,0 0,-21.9 0,-21.96 0,-2.74 -2.27,-4.81 -4.71,-4.81 l -3.47,0 0,31.61 z m -8.68,-31.55 0,-4.43 c 0,-1.65 -1.45,-2.7 -3.2,-2.7 0,0 -6.76,0 -6.73,0 -1.75,0 -3.23,1.05 -3.23,2.7 l 0,4.43 -6.31,0 0,31.61 25.84,0 0,-31.61 -6.37,0 z m -2.4,0 -8.45,0 0,-4.57 8.45,0 0,4.57 z m 24.71,-40.26 -4.58,-4.64 -27.27,0 c -2.34,-4.1 -6.75,-6.86 -11.8,-6.86 -7.51,0 -13.6,6.09 -13.6,13.6 0,7.51 6.09,13.6 13.6,13.6 5.11,0 9.56,-2.82 11.88,-7 l 5.34,0 4.22,-4.29 3.26,3.3 3.25,-3.3 3.26,3.3 3.3,-3.35 3.4,3.43 0.08,-0.03 5.69,-5.77 c 0.64,-0.64 0.68,-1.26 -0.03,-1.99 z m -49.59,5.55 c -2.02,0 -3.65,-1.64 -3.65,-3.65 0,-2.02 1.63,-3.65 3.65,-3.65 2.02,0 3.65,1.64 3.65,3.65 -0.01,2.01 -1.64,3.65 -3.65,3.65 z" />
    <path
       style="fill:none;stroke:#ff9933;stroke-width:3;stroke-miterlimit:10"
       inkscape:connector-curvature="0"
       id="path3647"
       pointer-events="none"
       stroke-miterlimit="10"
       d="m 491.5,191.5 0,-4.5 q 0,-4.5 10,-4.5 l 60,0 q 10,0 10,-10 l 0,-5.5 q 0,-5.5 5.55,2.82 l 8.9,13.36 q 5.55,8.32 0,16.64 l -8.9,13.36 q -5.55,8.32 -5.55,-1.68 l 0,-5.5 q 0,-5.5 -10,-5.5 l -60,0 q -10,0 -10,-4.5 z" />
    <path
       style="fill:none;stroke:#cccccc;stroke-width:3;stroke-miterlimit:10"
       inkscape:connector-curvature="0"
       id="path3649"
       pointer-events="none"
       stroke-miterlimit="10"
       d="m 591.5,252.5 0,4.5 q 0,4.5 -10,4.5 l -60,0 q -10,0 -10,10 l 0,5.5 q 0,5.5 -5.55,-2.82 l -8.9,-13.36 q -5.55,-8.32 0,-16.64 l 8.9,-13.36 q 5.55,-8.32 5.55,1.68 l 0,5.5 q 0,5.5 10,5.5 l 60,0 q 10,0 10,4.5 z" />
  </g>
  <g
     inkscape:groupmode="layer"
     id="layer14"
     inkscape:label="layer8"
     style="display:inline"
     class="fragment">
    <path
       style="fill:none;stroke:#cccccc;stroke-width:3;stroke-miterlimit:10"
       inkscape:connector-curvature="0"
       id="path3651"
       pointer-events="none"
       stroke-miterlimit="10"
       d="m 275.01696,243.73284 1.53909,4.22861 q 1.53909,4.22862 -7.85784,7.64882 l -142.83328,51.98706 q -9.39692,3.4202 -5.97672,12.81713 l 1.88111,5.16831 q 1.88111,5.16831 -7.78072,2.59783 l -31.343721,-8.34296 q -9.661834,-2.57047 -3.91271,-10.75008 l 18.64793,-26.53843 q 5.749121,-8.17961 9.169321,1.21732 l 1.88112,5.16831 q 1.88111,5.16831 11.27803,1.7481 L 262.54185,238.6958 q 9.39693,-3.4202 10.93602,0.80842 z" />
    <rect
       style="fill:none;stroke:#cccccc;stroke-width:3"
       id="rect3653"
       pointer-events="none"
       ry="18"
       rx="18"
       height="120"
       width="150"
       y="342.5"
       x="3.5" />
    <path
       style="fill:#ff9933;stroke:none"
       inkscape:connector-curvature="0"
       id="path3655"
       pointer-events="none"
       d="m 36.33,411.84 -6.21,-4.3 c 0,0 25.76,-7.88 41.59,-7.88 10.86,0 20.23,-3.12 16.62,-9.61 -3.62,-6.49 -3.62,-24.55 10.84,-23.63 0,0 9.96,0 10.86,9.72 0,0 -0.79,3.59 12.32,6.38 0,0 2.25,1.39 -1.82,3.26 0,0 -19.9,-1.41 -18.08,3.69 0,0 -0.44,4.43 6.21,7.08 11.42,4.52 22.84,41.95 -24.75,38.36 0,0 -18.65,-0.81 -33.56,-9.62 0,0 -17.07,-7.98 -23.85,-9.85 l 9.83,-3.6 z" />
  </g>
  <g
     inkscape:groupmode="layer"
     id="layer15"
     inkscape:label="layer9"
     style="display:none"
     class="fragment">
    <rect
       style="fill:none;stroke:#cccccc;stroke-width:3"
       id="rect3657"
       pointer-events="none"
       ry="18"
       rx="18"
       height="120"
       width="150"
       y="342.5"
       x="301.5" />
    <path
       style="fill:#ff9933;stroke:none"
       inkscape:connector-curvature="0"
       id="path3659"
       pointer-events="none"
       d="m 346.71,395.33 -4.56,-2.76 c 0,0 18.9,-5.08 30.51,-5.08 7.96,0 14.83,-2.01 12.18,-6.19 -2.65,-4.17 -2.65,-15.8 7.95,-15.21 0,0 7.31,0 7.96,6.26 0,0 -0.57,2.31 9.04,4.11 0,0 1.65,0.89 -1.34,2.09 0,0 -14.59,-0.9 -13.25,2.39 0,0 -0.33,2.85 4.55,4.55 8.37,2.91 16.75,27.01 -18.15,24.7 0,0 -13.67,-0.52 -24.61,-6.2 0,0 -12.52,-5.14 -17.49,-6.34 l 7.21,-2.32 z" />
    <path
       style="fill:#ff9933;stroke:none"
       inkscape:connector-curvature="0"
       id="path3661"
       pointer-events="none"
       d="m 411.7,435.27 0,-6.61 -16.23,0 0,-3.79 27.55,0 c 0.99,0 1.79,-0.73 1.79,-1.63 l 0,-68.1 c 0,-0.91 -0.8,-1.64 -1.79,-1.64 l -93.38,0 c -0.99,0 -1.79,0.73 -1.79,1.64 l 0,68.09 c 0,0.91 0.8,1.63 1.79,1.63 l 27.88,0 0,3.79 -16.22,0 0,6.61 -13.8,8.99 0,7.25 98,0 0,-7.25 -13.8,-8.98 z m -77.3,-16.84 0,-59.01 c 0,-0.78 0.69,-1.41 1.53,-1.41 l 80.43,0 c 0.85,0 1.54,0.63 1.54,1.41 l 0,59.01 c 0,0.78 -0.7,1.41 -1.54,1.41 l -80.42,0 c -0.85,0 -1.54,-0.64 -1.54,-1.41 z m -2.08,25.5 12.44,-8.03 63.48,0 12.42,8.03 -88.34,0 z" />
    <path
       style="fill:none;stroke:#ff9933;stroke-width:3;stroke-miterlimit:10"
       inkscape:connector-curvature="0"
       id="path3663"
       pointer-events="none"
       stroke-miterlimit="10"
       d="m 181.5,402.5 0,-4.5 q 0,-4.5 10,-4.5 l 60,0 q 10,0 10,-10 l 0,-5.5 q 0,-5.5 5.55,2.82 l 8.9,13.36 q 5.55,8.32 0,16.64 l -8.9,13.36 q -5.55,8.32 -5.55,-1.68 l 0,-5.5 q 0,-5.5 -10,-5.5 l -60,0 q -10,0 -10,-4.5 z" />
  </g>
</svg>
